<svg xmlns="http://www.w3.org/2000/svg" viewBox="0 0 1920 1080" width="1920" height="1080" preserveAspectRatio="xMidYMid slice">
  <defs>
    <linearGradient id="sky" x1="0" y1="0" x2="0" y2="1">
      <stop offset="0%" stop-color="#1b2f22"/>
      <stop offset="30%" stop-color="#2e4430"/>
      <stop offset="58%" stop-color="#6b5330"/>
      <stop offset="80%" stop-color="#b0631f"/>
      <stop offset="100%" stop-color="#e08a35"/>
    </linearGradient>
    <radialGradient id="sun" cx="50%" cy="50%" r="50%">
      <stop offset="0%" stop-color="#ffd58a" stop-opacity="0.95"/>
      <stop offset="55%" stop-color="#f2a03e" stop-opacity="0.5"/>
      <stop offset="100%" stop-color="#f2a03e" stop-opacity="0"/>
    </radialGradient>
    <linearGradient id="canopyMid" x1="0" y1="0" x2="0" y2="1">
      <stop offset="0%" stop-color="#33512f"/>
      <stop offset="100%" stop-color="#223a24"/>
    </linearGradient>
    <linearGradient id="canopyFar" x1="0" y1="0" x2="0" y2="1">
      <stop offset="0%" stop-color="#26402c"/>
      <stop offset="100%" stop-color="#1c3123"/>
    </linearGradient>
    <linearGradient id="mudWall" x1="0" y1="0" x2="0" y2="1">
      <stop offset="0%" stop-color="#8a5a34"/>
      <stop offset="100%" stop-color="#5c3a20"/>
    </linearGradient>
    <linearGradient id="roof" x1="0" y1="0" x2="0" y2="1">
      <stop offset="0%" stop-color="#4a3320"/>
      <stop offset="100%" stop-color="#2c1e12"/>
    </linearGradient>
    <radialGradient id="doorGlow" cx="50%" cy="50%" r="50%">
      <stop offset="0%" stop-color="#ffb15c" stop-opacity="0.95"/>
      <stop offset="60%" stop-color="#e4572e" stop-opacity="0.55"/>
      <stop offset="100%" stop-color="#e4572e" stop-opacity="0"/>
    </radialGradient>
    <radialGradient id="vignette" cx="50%" cy="42%" r="78%">
      <stop offset="55%" stop-color="#000" stop-opacity="0"/>
      <stop offset="100%" stop-color="#000" stop-opacity="0.5"/>
    </radialGradient>
    <filter id="grain">
      <feTurbulence type="fractalNoise" baseFrequency="0.85" numOctaves="2" seed="7"/>
      <feColorMatrix type="matrix" values="0 0 0 0 0  0 0 0 0 0  0 0 0 0 0  0 0 0 0.06 0"/>
    </filter>
  </defs>

  <rect width="1920" height="1080" fill="url(#sky)"/>
  <circle cx="1420" cy="360" r="260" fill="url(#sun)"/>

  <path d="M0 560 Q160 500 320 540 Q480 480 640 530 Q820 470 980 520 Q1140 470 1300 520 Q1480 460 1640 510 Q1800 470 1920 500 L1920 1080 L0 1080 Z" fill="url(#canopyFar)" opacity="0.85"/>

  <g fill="url(#canopyMid)" opacity="0.95">
    <ellipse cx="180" cy="640" rx="260" ry="140"/>
    <ellipse cx="420" cy="600" rx="220" ry="120"/>
    <ellipse cx="1560" cy="620" rx="260" ry="150"/>
    <ellipse cx="1780" cy="660" rx="220" ry="130"/>
    <ellipse cx="960" cy="560" rx="300" ry="100"/>
  </g>

  <g fill="#2f4a2c" opacity="0.9">
    <path d="M120 720 Q60 640 40 540 Q140 600 170 700 Q150 660 120 720 Z"/>
    <path d="M300 700 Q260 610 280 520 Q360 580 360 680 Q330 640 300 700 Z"/>
    <path d="M1650 730 Q1600 640 1620 540 Q1710 600 1700 700 Q1670 660 1650 730 Z"/>
    <path d="M1820 700 Q1790 610 1820 520 Q1890 590 1870 690 Q1840 650 1820 700 Z"/>
  </g>

  <g fill="#1a2417" opacity="0.95">
    <path d="M60 1080 L100 560 Q120 500 170 470 Q130 520 190 460 Q145 510 210 450 Q160 500 230 460 L250 1080 Z"/>
    <path d="M1900 1080 L1860 540 Q1840 480 1780 450 Q1830 500 1760 440 Q1815 490 1740 430 Q1800 470 1720 440 L1700 1080 Z"/>
  </g>

  <path d="M0 900 Q480 850 960 890 Q1440 850 1920 900 L1920 1080 L0 1080 Z" fill="#203221"/>
  <path d="M0 940 Q480 900 960 930 Q1440 900 1920 940 L1920 1080 L0 1080 Z" fill="#182818"/>

  <g transform="translate(760,560)">
    <path d="M-260 40 L0 -130 L260 40 L230 40 L0 -80 L-230 40 Z" fill="url(#roof)"/>
    <path d="M-230 40 L0 -80 L230 40 L220 60 L0 -55 L-220 60 Z" fill="#3a2818"/>
    <g stroke="#1e150d" stroke-width="3" opacity="0.5">
      <path d="M-180 30 L-30 -70"/>
      <path d="M-120 32 L20 -60"/>
      <path d="M-60 34 L70 -50"/>
      <path d="M0 34 L120 -40"/>
      <path d="M60 32 L170 -30"/>
      <path d="M120 30 L200 -12"/>
    </g>
    <rect x="-220" y="40" width="440" height="230" fill="url(#mudWall)"/>
    <g stroke="#4a2e18" stroke-width="2" opacity="0.4">
      <line x1="-220" y1="80" x2="220" y2="80"/>
      <line x1="-220" y1="120" x2="220" y2="120"/>
      <line x1="-220" y1="160" x2="220" y2="160"/>
      <line x1="-220" y1="200" x2="220" y2="200"/>
      <line x1="-220" y1="240" x2="220" y2="240"/>
    </g>
    <rect x="-232" y="38" width="16" height="234" fill="#2c1c10"/>
    <rect x="216" y="38" width="16" height="234" fill="#2c1c10"/>
    <rect x="-8" y="38" width="16" height="234" fill="#3a2818" opacity="0.6"/>

    <ellipse cx="0" cy="200" rx="140" ry="140" fill="url(#doorGlow)"/>
    <path d="M-58 270 L-58 150 Q-58 110 0 110 Q58 110 58 150 L58 270 Z" fill="#160e08"/>
    <path d="M-58 270 L-58 150 Q-58 110 0 110 Q58 110 58 150 L58 270 Z" fill="#ffb15c" opacity="0.35"/>

    <rect x="-190" y="130" width="46" height="60" rx="4" fill="#ffb15c" opacity="0.75"/>
    <rect x="-190" y="130" width="46" height="60" rx="4" fill="none" stroke="#2c1c10" stroke-width="5"/>
    <rect x="144" y="130" width="46" height="60" rx="4" fill="#ffb15c" opacity="0.55"/>
    <rect x="144" y="130" width="46" height="60" rx="4" fill="none" stroke="#2c1c10" stroke-width="5"/>

    <ellipse cx="0" cy="272" rx="80" ry="14" fill="#241811" opacity="0.7"/>
  </g>

  <g fill="#f4ead4" opacity="0.16">
    <ellipse cx="960" cy="420" rx="90" ry="26"/>
    <ellipse cx="1000" cy="360" rx="70" ry="20"/>
    <ellipse cx="940" cy="300" rx="55" ry="16"/>
    <ellipse cx="990" cy="250" rx="40" ry="12"/>
  </g>

  <g fill="#111c11">
    <path d="M0 1080 L0 880 Q120 900 220 960 Q140 940 60 1000 Q160 970 260 1030 L0 1080 Z"/>
    <path d="M1920 1080 L1920 860 Q1780 890 1680 950 Q1770 930 1850 1000 Q1740 970 1650 1040 L1920 1080 Z"/>
  </g>

  <g fill="#16261a" opacity="0.9">
    <path d="M340 1080 Q360 970 420 940 Q400 1000 460 950 Q420 1010 500 970 Q450 1030 560 1000 L580 1080 Z"/>
    <path d="M1360 1080 Q1380 980 1440 950 Q1420 1010 1480 960 Q1440 1020 1520 980 L1540 1080 Z"/>
  </g>

  <g stroke="#1a1410" stroke-width="4" fill="none" opacity="0.55" stroke-linecap="round">
    <path d="M1180 200 q14 -14 28 0 q14 -14 28 0"/>
    <path d="M1260 240 q10 -10 20 0 q10 -10 20 0"/>
  </g>

  <rect width="1920" height="1080" fill="url(#vignette)"/>
  <rect width="1920" height="1080" filter="url(#grain)"/>
</svg>
