<svg xmlns="http://www.w3.org/2000/svg" viewBox="0 0 1920 1080" width="1920" height="1080" preserveAspectRatio="xMidYMid slice">
  <defs>
    <!-- Warm dusk gradient: charred wood to ember glow at the horizon -->
    <linearGradient id="sky" x1="0" y1="0" x2="0" y2="1">
      <stop offset="0%" stop-color="#2B1D14"/>
      <stop offset="38%" stop-color="#3a2818"/>
      <stop offset="68%" stop-color="#5e4727"/>
      <stop offset="88%" stop-color="#8f4d14"/>
      <stop offset="100%" stop-color="#c4631f"/>
    </linearGradient>
    <!-- Subtle vignette -->
    <radialGradient id="vignette" cx="50%" cy="45%" r="75%">
      <stop offset="55%" stop-color="#000" stop-opacity="0"/>
      <stop offset="100%" stop-color="#000" stop-opacity="0.45"/>
    </radialGradient>
    <!-- Grain -->
    <filter id="grain">
      <feTurbulence type="fractalNoise" baseFrequency="0.85" numOctaves="2" seed="3"/>
      <feColorMatrix type="matrix" values="0 0 0 0 0  0 0 0 0 0  0 0 0 0 0  0 0 0 0.07 0"/>
    </filter>
  </defs>

  <!-- Sky/base -->
  <rect width="1920" height="1080" fill="url(#sky)"/>

  <!-- Distant palm silhouettes (back layer) -->
  <g fill="#2B1D14" opacity="0.85">
    <path d="M120 1080 Q140 760 180 620 Q160 520 200 440 Q150 580 210 380 Q175 540 240 420 Q200 600 250 500 L250 1080 Z"/>
    <path d="M1750 1080 Q1770 720 1810 580 Q1790 480 1830 400 Q1780 540 1840 340 Q1805 500 1860 400 L1860 1080 Z"/>
    <path d="M300 1080 Q330 820 370 700 Q350 620 390 560 Q348 700 400 520 L400 1080 Z"/>
  </g>

  <!-- Mid palms -->
  <g fill="#1a0f0a" opacity="0.92">
    <path d="M0 1080 L0 640 Q40 540 90 460 Q50 380 110 300 Q70 460 140 360 Q100 520 170 440 Q130 600 200 540 L220 1080 Z"/>
    <path d="M1620 1080 L1620 620 Q1660 520 1710 440 Q1670 360 1730 280 Q1690 440 1760 340 Q1720 500 1790 420 Q1750 580 1820 520 L1920 580 L1920 1080 Z"/>
  </g>

  <!-- Foreground: a warm glow as if from a doorway/fire (left-center) -->
  <g opacity="0.55">
    <ellipse cx="520" cy="820" rx="180" ry="120" fill="#e4572e" opacity="0.35"/>
    <ellipse cx="520" cy="820" rx="90" ry="60" fill="#f06a3f" opacity="0.45"/>
  </g>

  <!-- Steam wisps -->
  <g fill="#f1e7d0" opacity="0.06">
    <ellipse cx="780" cy="540" rx="320" ry="40"/>
    <ellipse cx="1100" cy="420" rx="280" ry="30"/>
    <ellipse cx="520" cy="680" rx="220" ry="35"/>
  </g>

  <!-- Vignette + grain overlays -->
  <rect width="1920" height="1080" fill="url(#vignette)"/>
  <rect width="1920" height="1080" filter="url(#grain)"/>
</svg>
