<svg xmlns="http://www.w3.org/2000/svg" viewBox="0 0 1200 630" width="1200" height="630">
  <defs>
    <linearGradient id="bg" x1="0" y1="0" x2="1" y2="1">
      <stop offset="0%" stop-color="#2B1D14"/>
      <stop offset="50%" stop-color="#3a2818"/>
      <stop offset="100%" stop-color="#5e4727"/>
    </linearGradient>
    <filter id="grain">
      <feTurbulence type="fractalNoise" baseFrequency="0.85" numOctaves="2" seed="5"/>
      <feColorMatrix type="matrix" values="0 0 0 0 0  0 0 0 0 0  0 0 0 0 0  0 0 0 0.06 0"/>
    </filter>
  </defs>
  <rect width="1200" height="630" fill="url(#bg)"/>
  <rect width="1200" height="630" filter="url(#grain)"/>

  <!-- Warm glow bottom-right (doorway/firelight feel) -->
  <ellipse cx="950" cy="520" rx="300" ry="180" fill="#B5651D" opacity="0.15"/>
  <ellipse cx="950" cy="520" rx="160" ry="100" fill="#E4572E" opacity="0.12"/>

  <!-- Palm silhouettes -->
  <g fill="#1a0f0a" opacity="0.6">
    <path d="M0 630 L0 380 Q30 300 70 240 Q40 180 90 120 Q60 240 130 160 Q90 300 160 220 Q120 360 180 300 L200 630 Z"/>
    <path d="M1050 630 L1050 340 Q1080 260 1120 200 Q1090 140 1140 80 Q1110 200 1170 120 Q1140 260 1200 180 L1200 630 Z"/>
  </g>

  <!-- Logo mark -->
  <g transform="translate(80, 200)">
    <path d="M40 0c-3 4-7.5 5.5-11 8-5 3.5-8.5 9-8.5 15.5 0 2.5.5 4.75 1.5 7-3.25 2-5.5 5.5-5.5 9.75 0 3.5 1.5 6.5 4 8.75-1 1.75-1.5 3.75-1.5 6 0 2 .5 3.75 1.5 5.25C17.75 69.25 15.75 72.25 15.75 75.75c0 1.25.25 2.5.75 3.5h46c.5-1 .75-2.25.75-3.5 0-3.5-2-6.5-4.75-8.25 1-1.5 1.5-3.25 1.5-5.25 0-2.25-.5-4.25-1.5-6 2.5-2.25 4-5.25 4-8.75 0-4.25-2.25-7.75-5.5-9.75 1-2.25 1.5-4.5 1.5-7 0-6.5-3.5-12-8.5-15.5C46 5.5 41.5 4 38.5 0z" fill="#B5651D" transform="scale(1.5)"/>
  </g>

  <!-- Wordmark -->
  <text x="80" y="380" font-family="Georgia, serif" font-size="72" font-weight="bold" fill="#F1E7D0">Hidden Oak</text>
  <text x="84" y="430" font-family="system-ui, sans-serif" font-size="24" fill="#B3A888" letter-spacing="3">RUSSIAN BANYA · ARAMBOL, GOA</text>

  <!-- Tagline -->
  <text x="80" y="510" font-family="Georgia, serif" font-size="28" font-style="italic" fill="#c6bcad">Steam and stillness, in the trees.</text>
</svg>
