<?xml version="1.0" encoding="UTF-8"?>
<svg xmlns="http://www.w3.org/2000/svg" viewBox="0 0 120 48" fill="none" role="img" aria-hidden="true">
  <!-- Center oak leaf -->
  <path d="M60 6c-2.2 2.8-5.4 4-7.8 5.8-3.6 2.6-5.8 6.4-5.8 11 0 1.9.3 3.4 1 5-2.4 1.4-3.8 3.8-3.8 6.8 0 2.4 1.1 4.6 2.8 6-.8 1.2-1.2 2.6-1.2 4.2 0 1.4.4 2.8 1.2 3.8-1.9 1.2-3.2 3.2-3.2 5.8 0 .9.2 1.7.5 2.4h4.2c-.4-.7-.7-1.4-.7-2.4 0-1.6 1.1-2.8 2.6-3 .9.5 1.9.9 2.9 1V48h4.2v-2.6c1-.2 1.9-.6 2.9-1 1.5.2 2.6 1.4 2.6 3 0 1-.2 1.7-.7 2.4h4.2c.3-.7.5-1.5.5-2.4 0-2.6-1.3-4.6-3.2-5.8.8-1 1.2-2.4 1.2-3.8 0-1.6-.4-3-1.2-4.2 1.7-1.4 2.8-3.6 2.8-6 0-3-1.4-5.4-3.8-6.8.7-1.6 1-3.1 1-5 0-4.6-2.2-8.4-5.8-11C65.4 10 62.2 8.8 60 6z" fill="currentColor"/>
  <!-- Left birch branch, leaf cluster -->
  <g stroke="currentColor" stroke-width="1.4" stroke-linecap="round" stroke-linejoin="round" fill="none">
    <path d="M52 28c-8-2-16-8-22-16"/>
    <path d="M38 18c-2.5-1-4-3.5-4.5-6M38 18c-3 .2-5.5-1.5-7-4M36 20c-2.2 1.2-5.2.8-7.2-1"/>
    <path d="M44 22c-1.5-2.5-1-5.5.5-7.5M42 24c-2.8-1.2-4.2-4-4-6.8"/>
  </g>
  <g fill="currentColor" opacity="0.85">
    <ellipse cx="33.5" cy="11" rx="2.2" ry="3.4" transform="rotate(-25 33.5 11)"/>
    <ellipse cx="29" cy="13.5" rx="2" ry="3.1" transform="rotate(-40 29 13.5)"/>
    <ellipse cx="27.5" cy="18.5" rx="2" ry="3" transform="rotate(-55 27.5 18.5)"/>
    <ellipse cx="44.5" cy="14.5" rx="2.1" ry="3.2" transform="rotate(15 44.5 14.5)"/>
    <ellipse cx="40" cy="18" rx="1.9" ry="2.9" transform="rotate(-10 40 18)"/>
  </g>
  <!-- Right birch branch (mirrored) -->
  <g stroke="currentColor" stroke-width="1.4" stroke-linecap="round" stroke-linejoin="round" fill="none">
    <path d="M68 28c8-2 16-8 22-16"/>
    <path d="M82 18c2.5-1 4-3.5 4.5-6M82 18c3 .2 5.5-1.5 7-4M84 20c2.2 1.2 5.2.8 7.2-1"/>
    <path d="M76 22c1.5-2.5 1-5.5-.5-7.5M78 24c2.8-1.2 4.2-4 4-6.8"/>
  </g>
  <g fill="currentColor" opacity="0.85">
    <ellipse cx="86.5" cy="11" rx="2.2" ry="3.4" transform="rotate(25 86.5 11)"/>
    <ellipse cx="91" cy="13.5" rx="2" ry="3.1" transform="rotate(40 91 13.5)"/>
    <ellipse cx="92.5" cy="18.5" rx="2" ry="3" transform="rotate(55 92.5 18.5)"/>
    <ellipse cx="75.5" cy="14.5" rx="2.1" ry="3.2" transform="rotate(-15 75.5 14.5)"/>
    <ellipse cx="80" cy="18" rx="1.9" ry="2.9" transform="rotate(10 80 18)"/>
  </g>
</svg>
