<?xml version="1.0" encoding="UTF-8"?>
<svg xmlns="http://www.w3.org/2000/svg" viewBox="0 0 32 32" fill="none" role="img" aria-hidden="true">
  <path d="M16 3c-1.1 1.5-2.8 2-4 3-1.8 1.4-3 3.4-3 5.8 0 1 .2 1.8.5 2.6-1.3.7-2 2-2 3.6 0 1.2.6 2.4 1.5 3.1-.4.6-.6 1.4-.6 2.2 0 .7.2 1.4.6 2-.9.6-1.6 1.7-1.6 3 0 .5.1.9.3 1.3h2.2c-.2-.3-.3-.7-.3-1.1 0-.8.5-1.4 1.3-1.5.5.3 1 .5 1.5.5V29h2.2v-2.3c.5-.1 1-.3 1.5-.5.8.1 1.3.7 1.3 1.5 0 .4-.1.8-.3 1.1h2.2c.2-.4.3-.8.3-1.3 0-1.3-.7-2.4-1.6-3 .4-.6.6-1.3.6-2 0-.8-.2-1.6-.6-2.2.9-.7 1.5-1.9 1.5-3.1 0-1.6-.7-2.9-2-3.6.3-.8.5-1.6.5-2.6 0-2.4-1.2-4.4-3-5.8-1.2-1-2.9-1.5-4-3z" fill="currentColor"/>
  <path d="M9 12c-2.5-1.2-4.5-3.5-5.5-6" stroke="currentColor" stroke-width="1.2" stroke-linecap="round"/>
  <ellipse cx="5.5" cy="5.5" rx="1.4" ry="2.1" fill="currentColor" transform="rotate(-30 5.5 5.5)" opacity="0.9"/>
  <ellipse cx="8" cy="7.2" rx="1.2" ry="1.8" fill="currentColor" transform="rotate(-15 8 7.2)" opacity="0.85"/>
  <path d="M23 12c2.5-1.2 4.5-3.5 5.5-6" stroke="currentColor" stroke-width="1.2" stroke-linecap="round"/>
  <ellipse cx="26.5" cy="5.5" rx="1.4" ry="2.1" fill="currentColor" transform="rotate(30 26.5 5.5)" opacity="0.9"/>
  <ellipse cx="24" cy="7.2" rx="1.2" ry="1.8" fill="currentColor" transform="rotate(15 24 7.2)" opacity="0.85"/>
</svg>
