<?xml version="1.0" encoding="UTF-8"?>
<svg xmlns="http://www.w3.org/2000/svg" viewBox="0 0 24 24" fill="none" role="img" aria-hidden="true">
  <path d="M12 3v18M5.6 6.5l12.8 11M18.4 6.5 5.6 17.5" stroke="currentColor" stroke-width="1.5" stroke-linecap="round"/>
  <path d="M12 6.2l-1.6-1.6M12 6.2l1.6-1.6M12 17.8l-1.6 1.6M12 17.8l1.6 1.6" stroke="currentColor" stroke-width="1.4" stroke-linecap="round"/>
  <path d="M7.4 8.2l-2.1.2M7.4 8.2l-.6-2M16.6 8.2l2.1.2M16.6 8.2l.6-2M7.4 15.8l-2.1-.2M7.4 15.8l-.6 2M16.6 15.8l2.1-.2M16.6 15.8l.6 2" stroke="currentColor" stroke-width="1.4" stroke-linecap="round"/>
  <circle cx="12" cy="12" r="1.4" fill="currentColor"/>
</svg>
