<?xml version="1.0" encoding="UTF-8"?>
<svg xmlns="http://www.w3.org/2000/svg" viewBox="0 0 24 24" fill="none" role="img" aria-hidden="true">
  <path d="M4 20c4-1.5 7-4.5 9.5-8.5C15.8 8 17.5 5.5 20 4" stroke="currentColor" stroke-width="1.5" stroke-linecap="round"/>
  <path d="M9.5 16.5c1.2-2.2 2.8-4 4.8-5.2M13.2 11.2c1.5-1.2 3-1.8 4.8-2" stroke="currentColor" stroke-width="1.4" stroke-linecap="round"/>
  <path d="M11.5 8.2c.4-1.4 1.4-2.5 2.8-3.1M15.2 6.5c.8-1 1.9-1.7 3.2-2" stroke="currentColor" stroke-width="1.4" stroke-linecap="round"/>
  <ellipse cx="14.2" cy="5.2" rx="1.3" ry="2" fill="currentColor" transform="rotate(-35 14.2 5.2)" opacity="0.95"/>
  <ellipse cx="18.6" cy="4.8" rx="1.2" ry="1.8" fill="currentColor" transform="rotate(20 18.6 4.8)" opacity="0.9"/>
  <ellipse cx="15.8" cy="9.6" rx="1.15" ry="1.7" fill="currentColor" transform="rotate(-50 15.8 9.6)" opacity="0.9"/>
  <ellipse cx="11.2" cy="12.8" rx="1.1" ry="1.65" fill="currentColor" transform="rotate(-40 11.2 12.8)" opacity="0.85"/>
</svg>
