<?xml version="1.0" encoding="UTF-8"?>
<svg xmlns="http://www.w3.org/2000/svg" viewBox="0 0 24 24" fill="none" role="img" aria-hidden="true">
  <path d="M12 2.5c1.2 2.2.6 3.8-.4 5.1-.8 1-1.2 1.8-1 3 .3 1.4 1.4 2.2 1.4 2.2S10.2 11 9.5 9.2C8.6 6.8 9.2 4.6 12 2.5z" stroke="currentColor" stroke-width="1.5" stroke-linecap="round" stroke-linejoin="round"/>
  <path d="M12 21.5c-3.6 0-6-2.4-6-6 0-2.4 1.1-4 2.4-5.5.6-.7 1.4-1.5 1.8-2.5.3 1.1 1 2 1.8 2.8 1.2 1.2 2 2.6 2 4.2 0 .8-.2 1.5-.5 2.1" stroke="currentColor" stroke-width="1.5" stroke-linecap="round" stroke-linejoin="round"/>
  <path d="M12 21.5c2.8 0 5.2-1.8 5.2-4.8 0-2.2-1.1-3.6-2.4-4.9-.9-.9-1.8-1.9-2-3.2 0 0 .9 1.2 1.5 2.2 1.1 1.8 1.7 3.2 1.7 4.7 0 2.2-1.4 4.2-3.5 5.1" stroke="currentColor" stroke-width="1.5" stroke-linecap="round" stroke-linejoin="round"/>
  <path d="M12 18.2c-1.4 0-2.3-1-2.3-2.3 0-1 .5-1.7 1.2-2.4.4-.4.8-.9 1-1.5.2.6.6 1.1 1 1.5.7.7 1.2 1.4 1.2 2.4 0 1.3-.9 2.3-2.1 2.3z" stroke="currentColor" stroke-width="1.5" stroke-linecap="round" stroke-linejoin="round"/>
</svg>
