<svg xmlns="http://www.w3.org/2000/svg" viewBox="0 0 32 32" width="32" height="32">
  <rect width="32" height="32" rx="6" fill="#0d0b09"/>
  <!-- oak leaf -->
  <path d="M16 4c-1.2 1.6-3 2.2-4.4 3.2-2 1.4-3.4 3.6-3.4 6.2 0 1 .2 1.9.6 2.8-1.3.8-2.2 2.2-2.2 3.9 0 1.4.6 2.6 1.6 3.5-.4.7-.6 1.5-.6 2.4 0 .8.2 1.5.6 2.1-1.1.7-1.9 1.9-1.9 3.3 0 .5.1 1 .3 1.4h2.4c-.3-.4-.4-.9-.4-1.4 0-.9.7-1.6 1.5-1.7.5.3 1 .5 1.6.6v2.5h2.4v-2.5c.6-.1 1.1-.3 1.6-.6.8.1 1.5.8 1.5 1.7 0 .5-.1 1-.4 1.4h2.4c.2-.4.3-.9.3-1.4 0-1.4-.8-2.6-1.9-3.3.4-.6.6-1.3.6-2.1 0-.9-.2-1.7-.6-2.4 1-.9 1.6-2.1 1.6-3.5 0-1.7-.9-3.1-2.2-3.9.4-.9.6-1.8.6-2.8 0-2.6-1.4-4.8-3.4-6.2C19 6.2 17.2 5.6 16 4z" fill="#b08a52"/>
  <!-- steam swirl -->
  <path d="M11 22c-1.5 1-1.5 2.5 0 3.5" stroke="#e07a2f" stroke-width="1.1" fill="none" stroke-linecap="round"/>
  <path d="M21 22c1.5 1 1.5 2.5 0 3.5" stroke="#e07a2f" stroke-width="1.1" fill="none" stroke-linecap="round"/>
  <path d="M16 23c-2 1.3-2 3.3 0 4.6" stroke="#e07a2f" stroke-width="1.1" fill="none" stroke-linecap="round"/>
</svg>
